<svg id="Layer_1" enable-background="new 0 0 498.1 498.1" height="512" viewBox="0 0 498.1 498.1" width="512" xmlns="http://www.w3.org/2000/svg"><g><path d="m404.67 122.399c-7.229-7.229-14.881-13.879-22.886-19.957l12.385-18.032 13.189 9.058c2.595 1.782 5.552 2.637 8.479 2.637 4.775 0 9.47-2.275 12.378-6.509 4.69-6.829 2.956-16.167-3.873-20.856l-25.545-17.544c-.003-.002-.006-.005-.009-.007s-.006-.004-.009-.006l-25.544-17.543c-6.829-4.689-16.167-2.956-20.857 3.872-4.69 6.829-2.956 16.167 3.873 20.856l13.189 9.058-12.732 18.538c-19.828-11.153-41.26-19.123-63.658-23.644v-32.32h8.5c8.284 0 15-6.716 15-15s-6.716-15-15-15h-23.5-58-23.5c-8.284 0-15 6.716-15 15s6.716 15 15 15h8.5v32.32c-42.009 8.479-80.624 29.084-111.62 60.08-41.567 41.567-64.46 96.835-64.46 155.62s22.893 114.053 64.46 155.62 96.834 64.46 155.62 64.46 114.053-22.893 155.62-64.46 64.46-96.835 64.46-155.62-22.893-114.053-64.46-155.621zm-155.62 345.701c-104.811 0-190.08-85.27-190.08-190.08s85.27-190.08 190.08-190.08 190.08 85.27 190.08 190.08-85.27 190.08-190.08 190.08zm-14-438.1h28v28.391c-4.642-.29-9.308-.452-14-.452s-9.358.162-14 .452z"/><path d="m249.05 114.017c-90.432 0-164.003 73.571-164.003 164.003s73.572 164.003 164.003 164.003 164.003-73.571 164.003-164.003-73.572-164.003-164.003-164.003zm133.159 149.003h-118.159v-118.159c61.928 6.93 111.229 56.23 118.159 118.159zm-133.159 149.002c-73.89 0-134.003-60.113-134.003-134.003 0-68.819 52.149-125.677 119.003-133.159v133.16c0 8.284 6.716 15 15 15h133.159c-7.481 66.854-64.34 119.002-133.159 119.002z"/></g></svg>